<?xml version="1.0" encoding="UTF-8"?>
<!-- Generated by Pixelmator Pro 3.6.18 -->
<svg width="2880" height="1800" viewBox="0 0 2880 1800" xmlns="http://www.w3.org/2000/svg">
    <filter id="filter1" x="0" y="0" width="2880" height="1800" filterUnits="userSpaceOnUse" primitiveUnits="userSpaceOnUse" color-interpolation-filters="sRGB">
        <feFlood flood-color="#000000" flood-opacity="0.5"/>
        <feComposite in2="SourceGraphic" operator="out"/>
        <feGaussianBlur stdDeviation="63"/>
        <feOffset dx="0" dy="2"/>
        <feComposite in2="SourceGraphic" operator="atop"/>
    </filter>
    <path id="path1" fill="#d30086" fill-rule="evenodd" stroke="none" filter="url(#filter1)" d="M 2315.255615 1059.5 L 2315.255615 956.671997 C 2330.303467 956.671997 2344.410889 953.746033 2357.577881 947.893982 C 2370.745117 942.041992 2382.762451 934.936035 2393.630615 926.575989 C 2404.498535 918.215942 2414.008057 909.229004 2422.158936 899.61499 C 2430.310059 890.000977 2437.102539 881.223022 2442.536621 873.281006 C 2456.748535 851.962891 2470.646973 828.868652 2484.231934 803.997498 C 2497.817139 779.126343 2508.998535 752.270142 2517.776611 723.427979 L 2424.980469 723.427979 L 2424.980469 620.599976 L 2754.155518 620.599976 L 2754.155518 1059.5 L 2644.43042 1059.5 L 2644.43042 1008.085999 L 2464.481445 1008.085999 C 2441.491455 1024.388062 2417.456543 1037.032471 2392.376465 1046.019531 C 2367.296387 1055.006592 2341.5896 1059.5 2315.255615 1059.5 Z M 2561.666504 905.88501 L 2644.43042 905.88501 L 2644.43042 723.427979 L 2635.025391 723.427979 C 2628.337402 757.704102 2618.828125 790.098877 2606.49707 820.613037 C 2594.166016 851.127197 2579.222656 879.550903 2561.666504 905.88501 Z M 1811.147461 1059.5 L 1811.147461 620.599976 L 1920.872559 620.599976 L 1920.872559 905.88501 C 1934.666626 905.88501 1947.415405 903.377014 1959.119507 898.360962 C 1970.823608 893.344971 1981.482422 887.284058 1991.096558 880.177979 C 2000.710571 873.07196 2009.174927 865.443542 2016.48999 857.29248 C 2023.805054 849.141479 2029.761475 841.722046 2034.359497 835.033997 C 2054.423584 807.445862 2069.784912 774.946655 2080.443848 737.535522 C 2091.103027 700.124268 2096.432617 661.14624 2096.432617 620.599976 L 2206.157471 620.599976 C 2206.157471 683.300293 2196.125488 741.401733 2176.061523 794.906006 C 2155.997314 848.410278 2128.827637 892.717834 2094.551514 927.829956 C 2097.895508 936.190063 2103.016113 943.086975 2109.913086 948.520996 C 2116.810059 953.955017 2124.438477 956.671997 2132.798584 956.671997 L 2206.157471 956.671997 L 2206.157471 1059.5 L 2132.798584 1059.5 C 2106.046387 1059.5 2081.59375 1053.334595 2059.439453 1041.003418 C 2037.2854 1028.672363 2019.520508 1011.848145 2006.144531 990.530029 C 1978.556396 1002.23407 1950.13269 1008.085999 1920.872559 1008.085999 L 1920.872559 1059.5 Z M 1221.767456 1059.5 L 1221.767456 956.671997 C 1236.815552 956.671997 1250.922974 953.746033 1264.089966 947.893982 C 1277.25708 942.041992 1289.274414 934.936035 1300.142456 926.575989 C 1311.010498 918.215942 1320.52002 909.229004 1328.671021 899.61499 C 1336.822021 890.000977 1343.614502 881.223022 1349.048462 873.281006 C 1363.26062 851.962891 1377.158936 828.868652 1390.744019 803.997498 C 1404.329102 779.126343 1415.510498 752.270142 1424.288452 723.427979 L 1331.492554 723.427979 L 1331.492554 620.599976 L 1660.66748 620.599976 L 1660.66748 1059.5 L 1550.942505 1059.5 L 1550.942505 1008.085999 L 1370.99353 1008.085999 C 1348.003418 1024.388062 1323.968628 1037.032471 1298.88855 1046.019531 C 1273.80835 1055.006592 1248.101685 1059.5 1221.767456 1059.5 Z M 1468.178467 905.88501 L 1550.942505 905.88501 L 1550.942505 723.427979 L 1541.537476 723.427979 C 1534.849487 757.704102 1525.340088 790.098877 1513.009033 820.613037 C 1500.677979 851.127197 1485.734619 879.550903 1468.178467 905.88501 Z M 654.959473 834.406982 C 654.959473 803.474854 660.915955 774.31958 672.828979 746.94043 C 684.742065 719.561401 700.8349 695.631104 721.107971 675.148926 C 741.381104 654.66687 765.206848 638.573975 792.585999 626.869995 C 819.965149 615.166016 849.120361 609.313965 880.05249 609.313965 C 921.434692 609.313965 959.89032 620.599854 995.420471 643.171997 L 995.420471 620.599976 L 1105.145508 620.599976 L 1105.145508 845.692993 L 995.420471 845.692993 C 995.420471 827.300903 992.390015 809.954102 986.328979 793.651978 C 980.267944 777.349915 972.012573 763.138062 961.5625 751.015991 C 951.112427 738.893921 938.886047 729.384521 924.882996 722.487549 C 910.879944 715.590454 895.936584 712.141968 880.05249 712.141968 C 864.168396 712.141968 849.225098 715.38147 835.221985 721.860474 C 821.218933 728.3396 808.992554 737.117432 798.54248 748.194458 C 788.092468 759.271484 779.837036 772.229492 773.776001 787.068481 C 767.714966 801.907593 764.684509 817.68689 764.684509 834.406982 C 764.684509 851.127075 767.714966 867.010925 773.776001 882.05896 C 779.837036 897.107056 788.092468 910.064941 798.54248 920.932983 C 808.992554 931.801025 821.218933 940.474487 835.221985 946.953491 C 849.225098 953.432495 864.168396 956.671997 880.05249 956.671997 L 1105.145508 956.671997 L 1105.145508 1059.5 L 880.05249 1059.5 C 849.120361 1059.5 819.965149 1053.543579 792.585999 1041.630493 C 765.206848 1029.717407 741.381104 1013.624634 721.107971 993.351501 C 700.8349 973.078369 684.742065 949.252625 672.828979 921.873535 C 660.915955 894.494385 654.959473 865.339111 654.959473 834.406982 Z M 311.990479 609.313965 C 343.758667 609.313965 373.645355 615.375 401.651489 627.49707 C 429.657654 639.619141 454.00589 656.129883 474.696991 677.030029 C 495.388092 697.930176 511.794434 722.382813 523.916504 750.389038 C 536.038574 778.395142 542.099487 808.28186 542.099487 840.049988 C 542.099487 871.818115 536.038574 901.704834 523.916504 929.710999 C 511.794434 957.717163 495.388092 982.169922 474.696991 1003.070007 C 454.00589 1023.970093 429.657654 1040.480957 401.651489 1052.603027 C 373.645355 1064.725098 343.758667 1070.786011 311.990479 1070.786011 C 280.222351 1070.786011 250.335648 1064.725098 222.329498 1052.603027 C 194.323364 1040.480957 169.870605 1023.970093 148.97049 1003.070007 C 128.070404 982.169922 111.559555 957.717163 99.4375 929.710999 C 87.315437 901.704834 81.254501 871.818115 81.254501 840.049988 C 81.254501 808.28186 87.315437 778.395142 99.4375 750.389038 C 111.559555 722.382813 128.070404 697.930176 148.97049 677.030029 C 169.870605 656.129883 194.323364 639.619141 222.329498 627.49707 C 250.335648 615.375 280.222351 609.313965 311.990479 609.313965 Z M 311.990479 967.958008 C 328.710571 967.958008 344.385437 964.614014 359.015503 957.926025 C 373.645569 951.237976 386.39444 942.042053 397.262512 930.338013 C 408.130554 918.633911 416.699463 905.049072 422.969513 889.583008 C 429.239532 874.116943 432.374512 857.606079 432.374512 840.049988 C 432.374512 822.493896 429.239532 805.87854 422.969513 790.203491 C 416.699463 774.528442 408.130554 760.943604 397.262512 749.448486 C 386.39444 737.953369 373.645569 728.862061 359.015503 722.174072 C 344.385437 715.485962 328.710571 712.141968 311.990479 712.141968 C 295.270416 712.141968 279.595581 715.485962 264.965515 722.174072 C 250.335434 728.862061 237.482056 737.953369 226.404999 749.448486 C 215.327942 760.943604 206.654526 774.528442 200.384506 790.203491 C 194.114471 805.87854 190.979492 822.493896 190.979492 840.049988 C 190.979492 857.606079 194.114471 874.116943 200.384506 889.583008 C 206.654526 905.049072 215.327942 918.633911 226.404999 930.338013 C 237.482056 942.042053 250.335434 951.237976 264.965515 957.926025 C 279.595581 964.614014 295.270416 967.958008 311.990479 967.958008 Z M 366.53949 788.635986 L 366.53949 891.463989 L 256.814514 891.463989 L 256.814514 788.635986 Z"/>
</svg>
